# Blender v3.1.2 OBJ File: 'untitled.blend'
# www.blender.org
mtllib attackFront.mtl
o 円錐
v 0.035022 -0.926691 1.734311
v 0.070092 -0.902987 1.732680
v 0.103815 -0.832786 1.727851
v 0.134893 -0.718785 1.720009
v 0.162134 -0.565367 1.709455
v 0.184490 -0.378425 1.696595
v 0.102545 -0.175821 0.227244
v 0.098127 -0.072803 -0.437795
v 0.099058 0.049546 -0.316274
v 0.098127 0.053002 -0.295582
v 0.102545 0.145027 0.380899
v 0.184490 0.361686 1.790769
v 0.162134 0.548628 1.777908
v 0.134893 0.702046 1.767354
v 0.103815 0.816047 1.759512
v 0.070092 0.886248 1.754683
v 0.035022 0.909952 1.753052
v -0.000048 0.886248 1.754683
v -0.033771 0.816047 1.759512
v -0.064849 0.702046 1.767354
v -0.092090 0.548628 1.777908
v -0.114446 0.361687 1.790769
v -0.046136 0.179460 0.578264
v -0.025205 0.068041 -0.295867
v -0.026050 0.046645 -0.411534
v -0.025205 -0.036251 -0.400369
v -0.046136 -0.238553 0.427465
v -0.114446 -0.378425 1.696595
v -0.092090 -0.565367 1.709455
v -0.064849 -0.718785 1.720009
v -0.033771 -0.832786 1.727851
v -0.000048 -0.902987 1.732680
v 0.035022 -0.016645 -1.331547
vt 0.250000 0.490000
vt 0.250000 0.250000
vt 0.296822 0.485388
vt 0.341844 0.471731
vt 0.383337 0.449553
vt 0.419706 0.419706
vt 0.449553 0.383337
vt 0.471731 0.341844
vt 0.485388 0.296822
vt 0.490000 0.250000
vt 0.485388 0.203178
vt 0.471731 0.158156
vt 0.449553 0.116663
vt 0.419706 0.080294
vt 0.383337 0.050447
vt 0.341844 0.028269
vt 0.296822 0.014612
vt 0.250000 0.010000
vt 0.203178 0.014612
vt 0.158156 0.028269
vt 0.116663 0.050447
vt 0.080294 0.080294
vt 0.050447 0.116663
vt 0.028269 0.158156
vt 0.014612 0.203178
vt 0.010000 0.250000
vt 0.014612 0.296822
vt 0.028269 0.341844
vt 0.050447 0.383337
vt 0.080294 0.419706
vt 0.116663 0.449553
vt 0.158156 0.471731
vt 0.514612 0.296822
vt 0.985388 0.296822
vt 0.985388 0.203178
vt 0.203178 0.485388
vt 0.703178 0.485388
vt 0.750000 0.490000
vt 0.528269 0.341844
vt 0.796822 0.485388
vt 0.971731 0.341844
vt 0.841844 0.471731
vt 0.883337 0.449553
vt 0.919706 0.419706
vt 0.949553 0.383337
vt 0.616663 0.449553
vt 0.658156 0.471731
vt 0.550447 0.383337
vt 0.580294 0.419706
vt 0.514612 0.203178
vt 0.510000 0.250000
vt 0.580294 0.080294
vt 0.550447 0.116663
vt 0.528269 0.158156
vt 0.616663 0.050447
vt 0.658156 0.028269
vt 0.750000 0.010000
vt 0.703178 0.014612
vt 0.841844 0.028269
vt 0.796822 0.014612
vt 0.971731 0.158156
vt 0.919706 0.080294
vt 0.883337 0.050447
vt 0.949553 0.116663
vt 0.990000 0.250000
vn 0.5359 -0.8094 -0.2403
vn 0.8893 -0.4366 -0.1365
vn 0.9590 -0.2678 -0.0930
vn 0.9811 -0.1792 -0.0734
vn 0.9904 -0.1228 -0.0636
vn 0.9444 0.3287 -0.0073
vn 0.8177 -0.5681 -0.0934
vn 0.9961 0.0586 -0.0666
vn 0.6831 0.7248 -0.0903
vn 0.7814 0.6176 -0.0891
vn 0.9536 -0.3008 -0.0092
vn 0.9915 0.1144 -0.0613
vn 0.9829 0.1696 -0.0710
vn 0.9624 0.2561 -0.0904
vn 0.8969 0.4216 -0.1335
vn 0.5512 0.7991 -0.2400
vn -0.5513 0.7991 -0.2400
vn -0.8969 0.4216 -0.1335
vn -0.9624 0.2561 -0.0904
vn -0.9829 0.1696 -0.0710
vn -0.9915 0.1144 -0.0613
vn -0.9602 -0.2792 -0.0121
vn -0.7969 0.5966 -0.0951
vn -0.8409 0.5333 -0.0925
vn -0.9977 -0.0189 -0.0649
vn -0.9826 -0.1733 -0.0672
vn 0.8966 0.4322 0.0959
vn -0.9904 -0.1228 -0.0636
vn -0.9811 -0.1792 -0.0734
vn -0.9590 -0.2678 -0.0930
vn -0.0209 -0.7488 0.6624
vn -0.8893 -0.4366 -0.1365
vn -0.5359 -0.8094 -0.2403
vn 0.5066 0.7755 0.3769
vn -0.5096 0.7790 0.3653
vn -0.8795 0.4357 0.1915
vn -0.9559 0.2687 0.1185
vn -0.9798 0.1799 0.0867
vn -0.9897 0.1233 0.0722
vn 0.2298 0.8670 0.4422
vn 0.9565 0.2686 0.1136
vn 0.8797 0.4357 0.1907
vn 0.9902 0.1230 0.0669
vn 0.9804 0.1796 0.0809
vn -0.0930 0.9677 0.2341
vn -0.9999 -0.0090 0.0090
vn 0.9909 -0.1135 0.0729
vn 0.9817 -0.1682 0.0894
vn 0.9959 -0.0833 0.0345
vn 0.9592 -0.2528 0.1262
vn 0.5429 -0.7823 0.3055
vn 0.8945 -0.4189 0.1562
vn -0.8882 -0.4128 0.2017
vn -0.5272 -0.7530 0.3938
vn -0.8606 -0.4616 0.2150
vn -0.9816 -0.1681 0.0904
vn -0.9595 -0.2530 0.1240
vn -0.9907 -0.1133 0.0750
vn 0.9965 -0.0625 0.0553
vn -0.1202 -0.9836 0.1346
vn -0.0876 -0.7051 0.7037
vn 0.3209 0.9363 0.1429
usemtl マテリアル
s off
f 1/1/1 33/2/1 2/3/1
f 2/3/2 33/2/2 3/4/2
f 3/4/3 33/2/3 4/5/3
f 4/5/4 33/2/4 5/6/4
f 5/6/5 33/2/5 6/7/5
f 6/7/6 33/2/6 7/8/6
f 7/8/7 33/2/7 8/9/7
f 8/9/8 33/2/8 9/10/8
f 9/10/9 33/2/9 10/11/9
f 10/11/10 33/2/10 11/12/10
f 11/12/11 33/2/11 12/13/11
f 12/13/12 33/2/12 13/14/12
f 13/14/13 33/2/13 14/15/13
f 14/15/14 33/2/14 15/16/14
f 15/16/15 33/2/15 16/17/15
f 16/17/16 33/2/16 17/18/16
f 17/18/17 33/2/17 18/19/17
f 18/19/18 33/2/18 19/20/18
f 19/20/19 33/2/19 20/21/19
f 20/21/20 33/2/20 21/22/20
f 21/22/21 33/2/21 22/23/21
f 22/23/22 33/2/22 23/24/22
f 23/24/23 33/2/23 24/25/23
f 24/25/24 33/2/24 25/26/24
f 25/26/25 33/2/25 26/27/25
f 26/27/26 33/2/26 27/28/26
f 27/28/27 33/2/27 28/29/27
f 28/29/28 33/2/28 29/30/28
f 29/30/29 33/2/29 30/31/29
f 30/31/30 33/2/30 31/32/30
f 26/33/31 8/34/31 10/35/31
f 31/32/32 33/2/32 32/36/32
f 32/36/33 33/2/33 1/1/33
f 32/37/34 1/38/34 27/39/34
f 1/38/35 2/40/35 7/41/35
f 2/40/36 3/42/36 7/41/36
f 3/42/37 4/43/37 7/41/37
f 4/43/38 5/44/38 7/41/38
f 5/44/39 6/45/39 7/41/39
f 1/38/40 7/41/40 27/39/40
f 30/46/41 31/47/41 27/39/41
f 31/47/42 32/37/42 27/39/42
f 28/48/43 29/49/43 27/39/43
f 29/49/44 30/46/44 27/39/44
f 27/39/45 7/41/45 26/33/45
f 24/50/46 25/51/46 26/33/46
f 21/52/47 22/53/47 23/54/47
f 21/52/48 23/54/48 20/55/48
f 23/54/49 24/50/49 19/56/49
f 19/56/50 20/55/50 23/54/50
f 17/57/51 18/58/51 24/50/51
f 18/58/52 19/56/52 24/50/52
f 15/59/53 16/60/53 11/61/53
f 16/60/54 17/57/54 11/61/54
f 11/61/55 17/57/55 24/50/55
f 13/62/56 14/63/56 11/61/56
f 14/63/57 15/59/57 11/61/57
f 11/61/58 12/64/58 13/62/58
f 8/34/59 9/65/59 10/35/59
f 10/35/60 11/61/60 24/50/60
f 24/50/61 26/33/61 10/35/61
f 26/33/62 7/41/62 8/34/62
