# Blender v3.1.2 OBJ File: ''
# www.blender.org
mtllib attack.mtl
o メタボール
v 0.855714 0.088281 -0.061488
v 0.855714 0.074203 -0.069191
v 1.081138 0.074203 -0.061488
v 0.855714 0.024734 -0.083343
v 1.426190 0.024734 -0.062854
v 1.426190 0.031056 -0.061488
v 0.855714 -0.024734 -0.083343
v 1.426190 -0.024734 -0.062854
v 1.452097 -0.024734 -0.061488
v 1.452097 0.024734 -0.061488
v 1.426190 -0.031056 -0.061488
v 1.426190 -0.074203 -0.042352
v 1.623937 -0.074203 -0.020496
v 1.891053 -0.024734 -0.020496
v 1.623937 -0.074203 0.020496
v 1.891053 -0.024734 0.020496
v 1.891053 0.024734 0.020496
v 1.891053 0.024734 -0.020496
v 1.623937 0.074203 0.020496
v 1.623937 0.074203 -0.020496
v 1.426190 0.092953 0.020496
v 1.426190 0.092953 -0.020496
v 1.426190 0.074203 -0.042352
v 1.426190 0.074203 0.042352
v 0.871618 0.123671 0.020496
v 0.871618 0.123671 -0.020496
v 0.855714 0.124292 0.020496
v 0.855714 0.124292 -0.020496
v 0.855714 0.123671 -0.021810
v 0.855714 0.123671 0.021810
v 0.285238 0.137317 0.020496
v 0.285238 0.123671 0.044352
v -0.285238 0.137317 0.020496
v -0.285238 0.123671 0.044352
v -0.285238 0.105824 0.061488
v 0.285238 0.105824 0.061488
v 0.285238 0.074203 0.079295
v -0.285238 0.074203 0.079295
v -0.285238 0.024734 0.091840
v 0.285238 0.024734 0.091840
v -0.285238 -0.024734 0.091840
v 0.285238 -0.024734 0.091840
v -0.285238 -0.074203 0.079295
v 0.285238 -0.074203 0.079295
v -0.285238 -0.105824 0.061488
v 0.285238 -0.105824 0.061488
v 0.285238 -0.123671 0.044352
v -0.285238 -0.123671 0.044352
v -0.285238 -0.137317 0.020496
v 0.285238 -0.137317 0.020496
v 0.285238 -0.137317 -0.020496
v -0.285238 -0.137317 -0.020496
v 0.285238 -0.123671 -0.044352
v -0.285238 -0.123671 -0.044352
v -0.285238 -0.105824 -0.061488
v 0.285238 -0.105824 -0.061488
v 0.285238 -0.074203 -0.079295
v -0.285238 -0.074203 -0.079295
v 0.285238 -0.024734 -0.091840
v -0.285238 -0.024734 -0.091840
v 0.285238 0.024734 -0.091840
v -0.285238 0.024734 -0.091840
v 0.285238 0.074203 -0.079295
v -0.285238 0.074203 -0.079295
v -0.285238 0.105824 -0.061488
v 0.285238 0.105824 -0.061488
v 0.285238 0.123671 -0.044352
v -0.285238 0.123671 -0.044352
v -0.285238 0.137317 -0.020496
v 0.285238 0.137317 -0.020496
v -0.855714 0.124292 -0.020496
v -0.855714 0.123671 -0.021810
v -0.855714 0.124292 0.020496
v -0.871618 0.123671 0.020496
v -0.871618 0.123671 -0.020496
v -1.426190 0.092953 0.020496
v -1.426190 0.092953 -0.020496
v -1.426190 0.074203 -0.042352
v -1.081138 0.074203 -0.061488
v -0.855714 0.088281 -0.061488
v -1.426190 0.031056 -0.061488
v -1.426190 0.024734 -0.062854
v -0.855714 0.024734 -0.083343
v -0.855714 0.074203 -0.069191
v -1.426190 -0.024734 -0.062854
v -0.855714 -0.024734 -0.083343
v -1.426190 -0.031056 -0.061488
v -1.081138 -0.074203 -0.061488
v -0.855714 -0.074203 -0.069191
v -0.855714 -0.088281 -0.061488
v -1.426190 -0.074203 -0.042352
v -1.452097 -0.024734 -0.061488
v -1.891053 -0.024734 -0.020496
v -1.623937 -0.074203 -0.020496
v -1.452097 0.024734 -0.061488
v -1.891053 0.024734 -0.020496
v -1.891053 -0.024734 0.020496
v -1.891053 0.024734 0.020496
v -1.623937 0.074203 -0.020496
v -1.623937 0.074203 0.020496
v -1.426190 0.031056 0.061488
v -1.452097 0.024734 0.061488
v -1.426190 0.074203 0.042352
v -1.426190 0.024734 0.062854
v -1.426190 -0.024734 0.062854
v -1.452097 -0.024734 0.061488
v -1.426190 -0.031056 0.061488
v -1.426190 -0.074203 0.042352
v -1.623937 -0.074203 0.020496
v -1.426190 -0.092953 0.020496
v -1.426190 -0.092953 -0.020496
v -0.871618 -0.123671 0.020496
v -0.871618 -0.123671 -0.020496
v -0.855714 -0.124292 0.020496
v -0.855714 -0.124292 -0.020496
v -0.855714 -0.123671 -0.021810
v -0.855714 -0.123671 0.021810
v -1.081138 -0.074203 0.061488
v -0.855714 -0.088281 0.061488
v -0.855714 -0.024734 0.083343
v -0.855714 -0.074203 0.069191
v -0.855714 0.024734 0.083343
v -1.081138 0.074203 0.061488
v -0.855714 0.123671 0.021810
v -0.855714 0.088281 0.061488
v -0.855714 0.074203 0.069191
v 0.855714 -0.088281 -0.061488
v 0.855714 -0.074203 -0.069191
v 1.081138 -0.074203 -0.061488
v 0.855714 -0.123671 -0.021810
v 0.871618 -0.123671 -0.020496
v 1.426190 -0.092953 -0.020496
v 0.855714 -0.124292 -0.020496
v 0.855714 -0.124292 0.020496
v 0.871618 -0.123671 0.020496
v 0.855714 -0.123671 0.021810
v 0.855714 -0.088281 0.061488
v 1.081138 -0.074203 0.061488
v 1.426190 -0.074203 0.042352
v 1.426190 -0.092953 0.020496
v 0.855714 -0.074203 0.069191
v 0.855714 -0.024734 0.083343
v 1.426190 -0.024734 0.062854
v 1.426190 -0.031056 0.061488
v 0.855714 0.024734 0.083343
v 1.426190 0.024734 0.062854
v 0.855714 0.074203 0.069191
v 1.081138 0.074203 0.061488
v 1.426190 0.031056 0.061488
v 0.855714 0.088281 0.061488
v 1.452097 0.024734 0.061488
v 1.452097 -0.024734 0.061488
vn 0.0391 0.5174 -0.8548
vn 0.0236 0.3780 -0.9255
vn 0.0283 0.6204 -0.7838
vn 0.0596 0.3299 -0.9421
vn 0.0438 0.1196 -0.9919
vn 0.0251 0.1345 -0.9906
vn 0.0433 -0.1163 -0.9923
vn 0.0255 -0.1349 -0.9905
vn 0.0795 0.2184 -0.9726
vn 0.0797 -0.1749 -0.9814
vn 0.0569 -0.3305 -0.9421
vn 0.6453 -0.5217 -0.5581
vn 0.1328 -0.8496 -0.5105
vn 0.0643 -0.5945 -0.8016
vn 0.6450 -0.5223 0.5578
vn 0.1312 -0.8498 0.5105
vn 0.6450 0.5223 -0.5578
vn 0.6453 0.5217 0.5581
vn 0.1312 0.8498 -0.5105
vn 0.1328 0.8496 0.5105
vn 0.0700 0.9326 -0.3540
vn 0.0700 0.9326 0.3540
vn 0.0675 0.5858 -0.8076
vn 0.0643 0.5945 0.8016
vn 0.0474 0.9357 -0.3496
vn 0.0474 0.9357 0.3496
vn 0.0300 0.9711 -0.2366
vn 0.0300 0.9711 0.2366
vn 0.0307 0.8190 -0.5730
vn 0.0307 0.8190 0.5730
vn 0.0112 0.7963 0.6049
vn 0.0110 0.9668 0.2555
vn -0.0112 0.7963 0.6049
vn -0.0110 0.9668 0.2555
vn 0.0101 0.6071 0.7946
vn -0.0101 0.6071 0.7946
vn -0.0078 0.3739 0.9274
vn 0.0078 0.3739 0.9274
vn 0.0077 0.1275 0.9918
vn -0.0077 0.1275 0.9918
vn 0.0077 -0.1275 0.9918
vn -0.0077 -0.1275 0.9918
vn 0.0078 -0.3739 0.9274
vn -0.0078 -0.3739 0.9274
vn 0.0101 -0.6071 0.7946
vn -0.0101 -0.6071 0.7946
vn -0.0112 -0.7963 0.6049
vn 0.0112 -0.7963 0.6049
vn 0.0110 -0.9668 0.2555
vn -0.0110 -0.9668 0.2555
vn -0.0110 -0.9668 -0.2555
vn 0.0110 -0.9668 -0.2555
vn -0.0112 -0.7963 -0.6049
vn 0.0112 -0.7963 -0.6049
vn 0.0101 -0.6071 -0.7946
vn -0.0101 -0.6071 -0.7946
vn -0.0078 -0.3739 -0.9274
vn 0.0078 -0.3739 -0.9274
vn -0.0077 -0.1275 -0.9918
vn 0.0077 -0.1275 -0.9918
vn -0.0077 0.1275 -0.9918
vn 0.0077 0.1275 -0.9918
vn -0.0078 0.3739 -0.9274
vn 0.0078 0.3739 -0.9274
vn 0.0101 0.6071 -0.7946
vn -0.0101 0.6071 -0.7946
vn -0.0112 0.7963 -0.6049
vn 0.0112 0.7963 -0.6049
vn 0.0110 0.9668 -0.2555
vn -0.0110 0.9668 -0.2555
vn -0.0307 0.8190 -0.5730
vn -0.0300 0.9711 -0.2366
vn -0.0300 0.9711 0.2366
vn -0.0474 0.9357 -0.3496
vn -0.0474 0.9357 0.3496
vn -0.0700 0.9326 -0.3540
vn -0.0700 0.9326 0.3540
vn -0.0283 0.6204 -0.7838
vn -0.0386 0.5169 -0.8552
vn -0.0643 0.5945 -0.8016
vn -0.0574 0.3353 -0.9404
vn -0.0239 0.3763 -0.9262
vn -0.0253 0.1331 -0.9908
vn -0.0438 0.1206 -0.9917
vn -0.0252 -0.1341 -0.9906
vn -0.0440 -0.1060 -0.9934
vn -0.0238 -0.3773 -0.9258
vn -0.0389 -0.5205 -0.8530
vn -0.0599 -0.3173 -0.9464
vn -0.0283 -0.6204 -0.7838
vn -0.0675 -0.5858 -0.8076
vn -0.1312 -0.8498 -0.5105
vn -0.6450 -0.5223 -0.5578
vn -0.0795 -0.2184 -0.9726
vn -0.6453 0.5217 -0.5581
vn -0.0797 0.1749 -0.9814
vn -0.6450 0.5223 0.5578
vn -0.6453 -0.5217 0.5581
vn -0.1312 0.8498 0.5105
vn -0.1328 0.8496 -0.5105
vn -0.0795 0.2184 0.9726
vn -0.0599 0.3173 0.9464
vn -0.0675 0.5858 0.8076
vn -0.0440 0.1060 0.9934
vn -0.0797 -0.1749 0.9814
vn -0.0438 -0.1206 0.9917
vn -0.0574 -0.3353 0.9404
vn -0.1328 -0.8496 0.5105
vn -0.0643 -0.5945 0.8016
vn -0.0700 -0.9326 0.3540
vn -0.0700 -0.9326 -0.3540
vn -0.0474 -0.9357 -0.3496
vn -0.0474 -0.9357 0.3496
vn -0.0300 -0.9711 -0.2366
vn -0.0300 -0.9711 0.2366
vn -0.0307 -0.8190 -0.5730
vn -0.0307 -0.8190 0.5730
vn -0.0283 -0.6204 0.7838
vn -0.0386 -0.5169 0.8552
vn -0.0239 -0.3763 0.9262
vn -0.0253 -0.1331 0.9908
vn -0.0252 0.1341 0.9906
vn -0.0389 0.5205 0.8530
vn -0.0283 0.6204 0.7838
vn -0.0307 0.8190 0.5730
vn -0.0238 0.3773 0.9258
vn 0.0240 -0.3777 -0.9256
vn 0.0283 -0.6204 -0.7838
vn 0.0382 -0.5110 -0.8587
vn 0.0700 -0.9326 -0.3540
vn 0.0474 -0.9357 -0.3496
vn 0.0307 -0.8190 -0.5730
vn 0.0300 -0.9711 -0.2366
vn 0.0474 -0.9357 0.3496
vn 0.0300 -0.9711 0.2366
vn 0.0307 -0.8190 0.5730
vn 0.0700 -0.9326 0.3540
vn 0.0675 -0.5858 0.8076
vn 0.0386 -0.5169 0.8552
vn 0.0283 -0.6204 0.7838
vn 0.0239 -0.3763 0.9262
vn 0.0595 -0.3309 0.9418
vn 0.0438 -0.1206 0.9917
vn 0.0253 -0.1331 0.9908
vn 0.0440 0.1060 0.9934
vn 0.0252 0.1341 0.9906
vn 0.0578 0.3217 0.9451
vn 0.0389 0.5205 0.8530
vn 0.0238 0.3773 0.9258
vn 0.0283 0.6204 0.7838
vn 0.0795 -0.2184 0.9726
vn 0.0797 0.1749 0.9814
usemtl マテリアル
s 1
f 3//1 2//2 1//3
f 3//1 6//4 5//5 4//6
f 2//2 3//1 4//6
f 4//6 5//5 8//7 7//8
f 5//5 10//9 9//10 8//7
f 8//7 9//10 11//11
f 14//12 13//13 12//14 11//11
f 9//10 14//12 11//11
f 13//13 14//12 16//15 15//16
f 14//12 18//17 17//18 16//15
f 18//17 20//19 19//20 17//18
f 19//20 20//19 22//21 21//22
f 20//19 23//23 22//21
f 24//24 19//20 21//22
f 22//21 26//25 25//26 21//22
f 25//26 26//25 28//27 27//28
f 26//25 29//29 28//27
f 30//30 25//26 27//28
f 32//31 30//30 27//28 31//32
f 34//33 32//31 31//32 33//34
f 36//35 32//31 34//33 35//36
f 38//37 37//38 36//35 35//36
f 40//39 37//38 38//37 39//40
f 42//41 40//39 39//40 41//42
f 44//43 42//41 41//42 43//44
f 46//45 44//43 43//44 45//46
f 48//47 47//48 46//45 45//46
f 50//49 47//48 48//47 49//50
f 52//51 51//52 50//49 49//50
f 54//53 53//54 51//52 52//51
f 56//55 53//54 54//53 55//56
f 58//57 57//58 56//55 55//56
f 60//59 59//60 57//58 58//57
f 62//61 61//62 59//60 60//59
f 64//63 63//64 61//62 62//61
f 66//65 63//64 64//63 65//66
f 68//67 67//68 66//65 65//66
f 70//69 67//68 68//67 69//70
f 69//70 68//67 72//71 71//72
f 33//34 69//70 71//72 73//73
f 71//72 75//74 74//75 73//73
f 74//75 75//74 77//76 76//77
f 80//78 79//79 78//80 77//76
f 75//74 72//71 80//78 77//76
f 78//80 79//79 81//81
f 84//82 83//83 82//84 81//81
f 79//79 84//82 81//81
f 82//84 83//83 86//85 85//86
f 86//85 89//87 88//88 87//89
f 85//86 86//85 87//89
f 88//88 89//87 90//90
f 88//88 91//91 87//89
f 94//92 93//93 92//94 87//89
f 91//91 94//92 87//89
f 96//95 95//96 92//94 93//93
f 98//97 96//95 93//93 97//98
f 100//99 99//100 96//95 98//97
f 100//99 98//97 102//101 101//102
f 103//103 100//99 101//102
f 100//99 103//103 76//77
f 102//101 104//104 101//102
f 104//104 102//101 106//105 105//106
f 105//106 106//105 107//107
f 97//98 109//108 108//109 107//107
f 106//105 97//98 107//107
f 108//109 109//108 110//110
f 109//108 94//92 111//111 110//110
f 111//111 113//112 112//113 110//110
f 112//113 113//112 115//114 114//115
f 113//112 116//116 115//114
f 117//117 112//113 114//115
f 119//118 118//119 108//109 110//110
f 112//113 117//117 119//118 110//110
f 108//109 118//119 107//107
f 121//120 120//121 105//106 107//107
f 118//119 121//120 107//107
f 120//121 122//122 104//104 105//106
f 123//123 103//103 101//102
f 102//101 98//97 97//98 106//105
f 94//92 91//91 111//111
f 97//98 93//93 94//92 109//108
f 92//94 85//86 87//89
f 92//94 95//96 82//84 85//86
f 82//84 95//96 81//81
f 84//82 79//79 80//78
f 78//80 99//100 77//76
f 125//124 124//125 74//75 76//77
f 103//103 123//123 125//124 76//77
f 123//123 126//126 125//124
f 77//76 99//100 100//99 76//77
f 74//75 124//125 73//73
f 67//68 29//29 1//3 66//65
f 72//71 68//67 65//66 80//78
f 83//83 62//61 60//59 86//85
f 57//58 128//127 127//128 56//55
f 128//127 129//129 127//128
f 132//130 131//131 130//132 127//128
f 129//129 12//14 132//130 127//128
f 130//132 131//131 133//133
f 133//133 131//131 135//134 134//135
f 135//134 136//136 134//135
f 140//137 139//138 138//139 137//140
f 136//136 135//134 140//137 137//140
f 138//139 141//141 137//140
f 144//142 143//143 142//144 141//141
f 138//139 144//142 141//141
f 143//143 146//145 145//146 142//144
f 149//147 148//148 147//149 145//146
f 146//145 149//147 145//146
f 147//149 148//148 150//150
f 24//24 148//148 149//147
f 152//151 151//152 146//145 143//143
f 152//151 143//143 144//142
f 15//16 139//138 140//137
f 135//134 131//131 132//130 140//137
f 89//87 58//57 55//56 90//90
f 127//128 130//132 53//54 56//55
f 55//56 54//53 116//116 90//90
f 116//116 54//53 52//51 115//114
f 51//52 133//133 134//135 50//49
f 115//114 52//51 49//50 114//115
f 134//135 136//136 47//48 50//49
f 49//50 48//47 117//117 114//115
f 47//48 136//136 137//140 46//45
f 117//117 48//47 45//46 119//118
f 45//46 43//44 121//120 119//118
f 141//141 142//144 42//41 44//43
f 43//44 41//42 120//121 121//120
f 142//144 145//146 40//39 42//41
f 41//42 39//40 122//122 120//121
f 39//40 38//37 126//126 122//122
f 37//38 147//149 150//150 36//35
f 126//126 38//37 35//36 125//124
f 31//32 70//69 69//70 33//34
f 124//125 34//33 33//34 73//73
f 27//28 28//27 70//69 31//32
f 17//18 19//20 24//24 149//147
f 151//152 17//18 149//147
f 16//15 17//18 151//152 152//151
f 132//130 13//13 15//16 140//137
f 15//16 16//15 152//151 144//142
f 139//138 15//16 144//142
f 12//14 129//129 11//11
f 9//10 10//9 18//17 14//12
f 61//62 4//6 7//8 59//60
f 3//1 23//23 6//4
f 10//9 5//5 6//4
f 8//7 11//11 129//129 128//127
f 7//8 8//7 128//127
f 22//21 23//23 3//1 1//3
f 29//29 26//25 22//21 1//3
f 20//19 18//17 10//9 6//4
f 23//23 20//19 6//4
f 12//14 13//13 132//130
f 21//22 25//26 30//30 150//150
f 148//148 24//24 21//22 150//150
f 146//145 151//152 149//147
f 138//139 139//138 144//142
f 1//3 2//2 63//64 66//65
f 63//64 2//2 4//6 61//62
f 59//60 7//8 128//127 57//58
f 28//27 29//29 67//68 70//69
f 53//54 130//132 133//133 51//52
f 150//150 30//30 32//31 36//35
f 145//146 147//149 37//38 40//39
f 137//140 141//141 44//43 46//45
f 65//66 64//63 84//82 80//78
f 84//82 64//63 62//61 83//83
f 86//85 60//59 58//57 89//87
f 72//71 75//74 71//72
f 96//95 99//100 78//80 81//81
f 95//96 96//95 81//81
f 90//90 116//116 113//112 111//111
f 91//91 88//88 90//90 111//111
f 35//36 34//33 124//125 125//124
f 122//122 126//126 123//123 101//102
f 104//104 122//122 101//102
f 121//120 118//119 119//118
